<mxfile host="65bd71144e">
    <diagram id="wumQDT3XMTtuutaRk5_z" name="Page-1">
        <mxGraphModel dx="2777" dy="1631" grid="0" gridSize="10" guides="1" tooltips="1" connect="1" arrows="1" fold="1" page="0" pageScale="1" pageWidth="850" pageHeight="1100" background="#ffffff" math="0" shadow="0">
            <root>
                <mxCell id="0"/>
                <mxCell id="1" parent="0"/>
                <mxCell id="2" value="Проект мероприятий по созданию онлайн-сервиса по планированию и организации работы сотрудников" style="rounded=0;whiteSpace=wrap;html=1;fillColor=none;strokeColor=#000000;fontFamily=Times New Roman;fontSize=14;fontColor=#000000;" parent="1" vertex="1">
                    <mxGeometry x="392" y="81" width="358" height="45" as="geometry"/>
                </mxCell>
                <mxCell id="4" value="№1 Введение новой должности помощника управляюшего директора ответственного за создание и функционирование онлайн-сервиса" style="rounded=0;whiteSpace=wrap;html=1;fillColor=none;strokeColor=#000000;fontFamily=Times New Roman;fontSize=14;fontColor=#000000;" parent="1" vertex="1">
                    <mxGeometry x="-50" y="197" width="422" height="45" as="geometry"/>
                </mxCell>
                <mxCell id="5" value="№2 SEO-оптимизация сайта" style="rounded=0;whiteSpace=wrap;html=1;fillColor=none;strokeColor=#000000;fontFamily=Times New Roman;fontSize=14;fontColor=#000000;" parent="1" vertex="1">
                    <mxGeometry x="413" y="197" width="315" height="45" as="geometry"/>
                </mxCell>
                <mxCell id="6" value="№3 Разработка веб-приложения для автоматизации управления проектами и задачами выполняемыми сотрудниками" style="rounded=0;whiteSpace=wrap;html=1;fillColor=none;strokeColor=#000000;fontFamily=Times New Roman;fontSize=14;fontColor=#000000;" parent="1" vertex="1">
                    <mxGeometry x="773" y="197" width="466" height="45" as="geometry"/>
                </mxCell>
                <mxCell id="7" value="- Улучшение коммуникации между сотрудниками и руководством;&lt;br&gt;- Повышение профессионального уровня и карьерных возможностей сотрудников:&lt;br&gt;- Повышение эффективности работы всей компании;&lt;br&gt;- Повышение эффективности использовать инструменты для планирования и организации работы сотрудников" style="rounded=0;whiteSpace=wrap;html=1;fillColor=none;strokeColor=#000000;fontFamily=Times New Roman;fontSize=14;fontColor=#000000;align=left;" parent="1" vertex="1">
                    <mxGeometry x="-50" y="278" width="423" height="113" as="geometry"/>
                </mxCell>
                <mxCell id="8" value="- Улучшение видимости в поисковых системах;&lt;br&gt;- Повышение трафика на сайт;&lt;br&gt;- Улучшение пользовательского опыта;&lt;br&gt;- Повышение конкурентоспособности компании;&lt;br&gt;- Привлечение целевой аудиториии на сайт" style="rounded=0;whiteSpace=wrap;html=1;fillColor=none;strokeColor=#000000;fontFamily=Times New Roman;fontSize=14;fontColor=#000000;align=left;" parent="1" vertex="1">
                    <mxGeometry x="413" y="278" width="316" height="88" as="geometry"/>
                </mxCell>
                <mxCell id="9" value="- Упрощение и улучшение коммуникации между сотрудниками;&lt;br&gt;- Повышение эффективности работы;&lt;br&gt;- Снижение количества ошибок;&lt;br&gt;- Сокращение времени на планирование и координацию работы сотрудников;&lt;br&gt;- Сокращение затрат на административную работу;&lt;br&gt;- Улучшение управленческих процессов" style="rounded=0;whiteSpace=wrap;html=1;fillColor=none;strokeColor=#000000;fontFamily=Times New Roman;fontSize=14;fontColor=#000000;align=left;" parent="1" vertex="1">
                    <mxGeometry x="773" y="278" width="467" height="107" as="geometry"/>
                </mxCell>
                <mxCell id="10" value="- Повышение уровня производительности труда;&lt;br&gt;- Сокращение затрат на административную работу;&lt;br&gt;- Улучшение прозрачности;&lt;br&gt;- Повышение конкурентоспособности" style="rounded=0;whiteSpace=wrap;html=1;fillColor=none;strokeColor=#000000;fontFamily=Times New Roman;fontSize=14;fontColor=#000000;align=left;" parent="1" vertex="1">
                    <mxGeometry x="412" y="460" width="316" height="78" as="geometry"/>
                </mxCell>
                <mxCell id="13" value="" style="endArrow=none;html=1;fontFamily=Times New Roman;fontSize=14;fontColor=#000000;labelBorderColor=none;strokeColor=#000000;endFill=0;exitX=0.5;exitY=1;exitDx=0;exitDy=0;entryX=0.5;entryY=0;entryDx=0;entryDy=0;" parent="1" source="2" target="4" edge="1">
                    <mxGeometry width="50" height="50" relative="1" as="geometry">
                        <mxPoint x="211" y="519" as="sourcePoint"/>
                        <mxPoint x="277" y="522" as="targetPoint"/>
                    </mxGeometry>
                </mxCell>
                <mxCell id="14" value="" style="endArrow=none;html=1;fontFamily=Times New Roman;fontSize=14;fontColor=#000000;labelBorderColor=none;strokeColor=#000000;endFill=0;exitX=0.5;exitY=1;exitDx=0;exitDy=0;entryX=0.5;entryY=0;entryDx=0;entryDy=0;" parent="1" source="2" target="5" edge="1">
                    <mxGeometry width="50" height="50" relative="1" as="geometry">
                        <mxPoint x="580.9999999999995" y="136" as="sourcePoint"/>
                        <mxPoint x="178" y="207" as="targetPoint"/>
                    </mxGeometry>
                </mxCell>
                <mxCell id="15" value="" style="endArrow=none;html=1;fontFamily=Times New Roman;fontSize=14;fontColor=#000000;labelBorderColor=none;strokeColor=#000000;endFill=0;entryX=0.5;entryY=0;entryDx=0;entryDy=0;exitX=0.5;exitY=1;exitDx=0;exitDy=0;" parent="1" source="2" target="6" edge="1">
                    <mxGeometry width="50" height="50" relative="1" as="geometry">
                        <mxPoint x="595" y="137" as="sourcePoint"/>
                        <mxPoint x="736" y="184" as="targetPoint"/>
                    </mxGeometry>
                </mxCell>
                <mxCell id="16" value="" style="endArrow=none;html=1;fontFamily=Times New Roman;fontSize=14;fontColor=#000000;labelBorderColor=none;strokeColor=#000000;endFill=0;exitX=0.5;exitY=1;exitDx=0;exitDy=0;" parent="1" source="4" edge="1">
                    <mxGeometry width="50" height="50" relative="1" as="geometry">
                        <mxPoint x="421.99999999999955" y="444" as="sourcePoint"/>
                        <mxPoint x="161" y="277" as="targetPoint"/>
                    </mxGeometry>
                </mxCell>
                <mxCell id="17" value="" style="endArrow=none;html=1;fontFamily=Times New Roman;fontSize=14;fontColor=#000000;labelBorderColor=none;strokeColor=#000000;endFill=0;exitX=0.5;exitY=1;exitDx=0;exitDy=0;" parent="1" source="5" edge="1">
                    <mxGeometry width="50" height="50" relative="1" as="geometry">
                        <mxPoint x="590.9999999999995" y="146" as="sourcePoint"/>
                        <mxPoint x="570" y="277" as="targetPoint"/>
                    </mxGeometry>
                </mxCell>
                <mxCell id="18" value="" style="endArrow=none;html=1;fontFamily=Times New Roman;fontSize=14;fontColor=#000000;labelBorderColor=none;strokeColor=#000000;endFill=0;exitX=0.5;exitY=1;exitDx=0;exitDy=0;" parent="1" source="6" edge="1">
                    <mxGeometry width="50" height="50" relative="1" as="geometry">
                        <mxPoint x="600.9999999999995" y="156" as="sourcePoint"/>
                        <mxPoint x="1006" y="278" as="targetPoint"/>
                    </mxGeometry>
                </mxCell>
                <mxCell id="19" value="" style="endArrow=none;html=1;fontFamily=Times New Roman;fontSize=14;fontColor=#000000;labelBorderColor=none;strokeColor=#000000;endFill=0;exitX=0.5;exitY=1;exitDx=0;exitDy=0;entryX=0.5;entryY=0;entryDx=0;entryDy=0;" parent="1" source="8" target="10" edge="1">
                    <mxGeometry width="50" height="50" relative="1" as="geometry">
                        <mxPoint x="610.9999999999995" y="166" as="sourcePoint"/>
                        <mxPoint x="201" y="237" as="targetPoint"/>
                    </mxGeometry>
                </mxCell>
                <mxCell id="20" value="" style="endArrow=none;html=1;fontFamily=Times New Roman;fontSize=14;fontColor=#000000;labelBorderColor=none;strokeColor=#000000;endFill=0;exitX=0.5;exitY=1;exitDx=0;exitDy=0;entryX=0.5;entryY=0;entryDx=0;entryDy=0;" parent="1" source="7" target="10" edge="1">
                    <mxGeometry width="50" height="50" relative="1" as="geometry">
                        <mxPoint x="620.9999999999995" y="176" as="sourcePoint"/>
                        <mxPoint x="211" y="247" as="targetPoint"/>
                    </mxGeometry>
                </mxCell>
                <mxCell id="21" value="" style="endArrow=none;html=1;fontFamily=Times New Roman;fontSize=14;fontColor=#000000;labelBorderColor=none;strokeColor=#000000;endFill=0;exitX=0.5;exitY=1;exitDx=0;exitDy=0;entryX=0.5;entryY=0;entryDx=0;entryDy=0;" parent="1" source="9" target="10" edge="1">
                    <mxGeometry width="50" height="50" relative="1" as="geometry">
                        <mxPoint x="630.9999999999995" y="186" as="sourcePoint"/>
                        <mxPoint x="221" y="257" as="targetPoint"/>
                    </mxGeometry>
                </mxCell>
            </root>
        </mxGraphModel>
    </diagram>
</mxfile>